# xmcd
# 
# Track frame offsets:
#     150
#     22908
#     26162
#     49591
#     75720
#     91574
#     107067
#     123167
#     176029
#     195947
#     216961
# 
# Disc length: 3943
# 
# Revision: 1
# Processed by: cddbd v1.5.2PL0 Copyright (c) Steve Scherf et al.
# Submitted via: fre:ac v1.0.31
# 
DISCID=800f650b
DTITLE=Johnny Winter - True To The Blues - The Johnny Winter Story Disc 2
DYEAR=2014
DGENRE=Blues
TTITLE0=Eyesight To The Blind (Live At Atlanta Pop)
TTITLE1=Johnny Winter's Intro (Live At Atlanta Pop)
TTITLE2=Prodigal Son (Live At Atlanta Pop)
TTITLE3=Mean Mistreater (Live At Atlanta Pop)
TTITLE4=Rock And Roll, Hoochie Koo
TTITLE5=Guess I'll Go Away
TTITLE6=On The Limb
TTITLE7=It's My Own Fault (Live)
TTITLE8=Jumpin' Jack Flash (Live)
TTITLE9=Good Morning Little School Girl (Live At Fillmore East)
TTITLE10=Mean Town Blues (Live At Fillmore East)
EXTD=
EXTT0=
EXTT1=
EXTT2=
EXTT3=
EXTT4=
EXTT5=
EXTT6=
EXTT7=
EXTT8=
EXTT9=
EXTT10=
PLAYORDER=
